<svg xmlns="http://www.w3.org/2000/svg" xmlns:xlink="http://www.w3.org/1999/xlink" width="48" zoomAndPan="magnify" viewBox="0 0 36 36.000001" height="48" preserveAspectRatio="xMidYMid meet" version="1.0"><defs><clipPath id="c2c28f030a"><path d="M 9.726562 0 L 26.507812 0 L 26.507812 35 L 9.726562 35 Z M 9.726562 0 " clip-rule="nonzero"/></clipPath></defs><g clip-path="url(#c2c28f030a)"><path fill="#ffde59" d="M 22.640625 5.816406 L 26.511719 5.816406 L 26.511719 0.0585938 L 21.5625 0.0585938 L 21.5625 0.0820312 C 15.0625 0.3125 13.730469 3.910156 13.613281 7.699219 L 13.597656 7.699219 L 13.597656 11.695312 L 9.726562 11.695312 L 9.726562 17.453125 L 13.597656 17.453125 L 13.597656 34.96875 L 20.546875 34.96875 L 20.546875 17.453125 L 25.527344 17.453125 L 26.511719 11.695312 L 20.546875 11.695312 L 20.546875 8.121094 C 20.546875 6.847656 21.410156 5.816406 22.640625 5.816406 Z M 22.640625 5.816406 " fill-opacity="1" fill-rule="nonzero"/></g></svg>