<svg xmlns="http://www.w3.org/2000/svg" xmlns:xlink="http://www.w3.org/1999/xlink" width="48" zoomAndPan="magnify" viewBox="0 0 36 36.000001" height="48" preserveAspectRatio="xMidYMid meet" version="1.0"><defs><clipPath id="78988ce7eb"><path d="M 0.488281 0 L 35.511719 0 L 35.511719 35.027344 L 0.488281 35.027344 Z M 0.488281 0 " clip-rule="nonzero"/></clipPath></defs><g clip-path="url(#78988ce7eb)"><path fill="#ffde59" d="M 17.992188 3.15625 C 22.667969 3.15625 23.21875 3.171875 25.066406 3.257812 C 26.773438 3.335938 27.699219 3.617188 28.324219 3.863281 C 29.136719 4.179688 29.71875 4.5625 30.332031 5.175781 C 30.945312 5.789062 31.324219 6.375 31.644531 7.1875 C 31.882812 7.800781 32.167969 8.730469 32.25 10.441406 C 32.335938 12.289062 32.351562 12.84375 32.351562 17.515625 C 32.351562 22.191406 32.335938 22.742188 32.25 24.59375 C 32.175781 26.296875 31.890625 27.226562 31.644531 27.847656 C 31.332031 28.660156 30.945312 29.246094 30.332031 29.859375 C 29.71875 30.472656 29.136719 30.847656 28.324219 31.171875 C 27.707031 31.410156 26.78125 31.691406 25.066406 31.777344 C 23.21875 31.859375 22.667969 31.875 17.992188 31.875 C 13.320312 31.875 12.765625 31.859375 10.917969 31.777344 C 9.210938 31.699219 8.285156 31.417969 7.664062 31.171875 C 6.847656 30.855469 6.265625 30.472656 5.652344 29.859375 C 5.039062 29.246094 4.660156 28.660156 4.339844 27.847656 C 4.101562 27.234375 3.816406 26.304688 3.734375 24.59375 C 3.648438 22.742188 3.632812 22.191406 3.632812 17.515625 C 3.632812 12.84375 3.648438 12.289062 3.734375 10.441406 C 3.808594 8.738281 4.09375 7.808594 4.339844 7.1875 C 4.652344 6.375 5.039062 5.789062 5.652344 5.175781 C 6.265625 4.5625 6.847656 4.1875 7.664062 3.863281 C 8.277344 3.625 9.203125 3.34375 10.917969 3.257812 C 12.765625 3.171875 13.320312 3.15625 17.992188 3.15625 M 17.992188 0.00390625 C 13.234375 0.00390625 12.644531 0.0273438 10.769531 0.109375 C 8.90625 0.195312 7.632812 0.496094 6.519531 0.925781 C 5.367188 1.371094 4.394531 1.96875 3.417969 2.941406 C 2.453125 3.917969 1.851562 4.894531 1.40625 6.042969 C 0.976562 7.15625 0.679688 8.429688 0.59375 10.296875 C 0.507812 12.160156 0.488281 12.757812 0.488281 17.507812 C 0.488281 22.269531 0.507812 22.859375 0.59375 24.730469 C 0.679688 26.597656 0.976562 27.871094 1.40625 28.984375 C 1.851562 30.132812 2.453125 31.109375 3.425781 32.082031 C 4.402344 33.058594 5.375 33.65625 6.527344 34.101562 C 7.640625 34.53125 8.914062 34.832031 10.777344 34.914062 C 12.644531 35 13.242188 35.023438 18 35.023438 C 22.757812 35.023438 23.347656 35 25.222656 34.914062 C 27.085938 34.832031 28.359375 34.53125 29.472656 34.101562 C 30.625 33.65625 31.597656 33.058594 32.574219 32.082031 C 33.546875 31.109375 34.148438 30.132812 34.59375 28.984375 C 35.023438 27.871094 35.320312 26.597656 35.40625 24.730469 C 35.492188 22.867188 35.511719 22.269531 35.511719 17.507812 C 35.511719 12.75 35.492188 12.160156 35.40625 10.289062 C 35.320312 8.421875 35.023438 7.148438 34.59375 6.035156 C 34.148438 4.886719 33.546875 3.910156 32.574219 2.9375 C 31.597656 1.960938 30.625 1.363281 29.472656 0.917969 C 28.359375 0.488281 27.085938 0.1875 25.222656 0.105469 C 23.347656 0.0273438 22.75 0.00390625 17.992188 0.00390625 " fill-opacity="1" fill-rule="nonzero"/></g><path fill="#ffde59" d="M 17.992188 8.523438 C 13.027344 8.523438 9.003906 12.542969 9.003906 17.507812 C 9.003906 22.476562 13.035156 26.503906 18 26.503906 C 22.964844 26.503906 26.996094 22.484375 26.996094 17.507812 C 26.988281 12.542969 22.957031 8.523438 17.992188 8.523438 M 17.992188 23.351562 C 14.769531 23.351562 12.160156 20.742188 12.160156 17.515625 C 12.160156 14.292969 14.769531 11.683594 17.992188 11.683594 C 21.214844 11.683594 23.824219 14.292969 23.824219 17.515625 C 23.832031 20.734375 21.214844 23.351562 17.992188 23.351562 " fill-opacity="1" fill-rule="nonzero"/><path fill="#ffde59" d="M 29.441406 8.167969 C 29.441406 9.328125 28.5 10.273438 27.339844 10.273438 C 26.179688 10.273438 25.238281 9.328125 25.238281 8.167969 C 25.238281 7.011719 26.179688 6.066406 27.339844 6.066406 C 28.5 6.066406 29.441406 7.003906 29.441406 8.167969 " fill-opacity="1" fill-rule="nonzero"/></svg>