<svg xmlns="http://www.w3.org/2000/svg" xmlns:xlink="http://www.w3.org/1999/xlink" width="48" zoomAndPan="magnify" viewBox="0 0 36 36.000001" height="48" preserveAspectRatio="xMidYMid meet" version="1.0"><defs><clipPath id="df089c353e"><path d="M 0.996094 0.511719 L 35.292969 0.511719 L 35.292969 34.808594 L 0.996094 34.808594 Z M 0.996094 0.511719 " clip-rule="nonzero"/></clipPath></defs><g clip-path="url(#df089c353e)"><path fill="#ffde59" d="M 26.671875 0.523438 L 9.59375 0.523438 C 4.859375 0.523438 0.996094 4.386719 0.996094 9.117188 L 0.996094 26.226562 C 0.996094 30.933594 4.859375 34.792969 9.59375 34.792969 L 26.699219 34.792969 C 31.433594 34.792969 35.292969 30.933594 35.292969 26.199219 L 35.292969 9.117188 C 35.265625 4.386719 31.40625 0.523438 26.671875 0.523438 Z M 12.421875 28.265625 L 7.523438 28.265625 L 7.523438 14.125 L 12.421875 14.125 Z M 9.945312 11.949219 C 8.558594 11.949219 7.441406 10.832031 7.441406 9.445312 C 7.441406 8.058594 8.558594 6.941406 9.945312 6.941406 C 11.332031 6.941406 12.449219 8.058594 12.449219 9.445312 C 12.421875 10.832031 11.304688 11.949219 9.945312 11.949219 Z M 28.738281 28.265625 L 24.660156 28.265625 L 24.660156 21.414062 C 24.660156 19.753906 24.441406 17.632812 22.183594 17.632812 C 19.875 17.632812 19.492188 19.425781 19.492188 21.304688 L 19.492188 28.265625 L 15.414062 28.265625 L 15.414062 14.125 L 19.21875 14.125 L 19.21875 16.027344 L 19.328125 16.027344 C 19.925781 14.941406 21.316406 14.097656 23.492188 14.097656 C 27.976562 14.097656 28.765625 16.679688 28.765625 20.515625 L 28.765625 28.265625 Z M 28.738281 28.265625 " fill-opacity="1" fill-rule="nonzero"/></g></svg>