<svg xmlns="http://www.w3.org/2000/svg" xmlns:xlink="http://www.w3.org/1999/xlink" width="48" zoomAndPan="magnify" viewBox="0 0 36 36.000001" height="48" preserveAspectRatio="xMidYMid meet" version="1.0"><defs><clipPath id="436abbdaed"><path d="M 0.488281 3 L 35.511719 3 L 35.511719 32.117188 L 0.488281 32.117188 Z M 0.488281 3 " clip-rule="nonzero"/></clipPath></defs><g clip-path="url(#436abbdaed)"><path fill="#ffde59" d="M 31.894531 10.773438 C 31.917969 11.082031 31.917969 11.390625 31.917969 11.699219 C 31.917969 21.183594 24.703125 32.117188 11.515625 32.117188 L 11.515625 32.109375 C 7.621094 32.117188 3.804688 31 0.527344 28.894531 C 1.09375 28.960938 1.664062 28.996094 2.234375 29 C 5.460938 29 8.597656 27.917969 11.136719 25.921875 C 8.070312 25.863281 5.378906 23.859375 4.4375 20.9375 C 5.515625 21.144531 6.621094 21.101562 7.675781 20.8125 C 4.332031 20.136719 1.925781 17.195312 1.925781 13.78125 C 1.925781 13.75 1.925781 13.71875 1.925781 13.691406 C 2.921875 14.246094 4.039062 14.554688 5.179688 14.585938 C 2.027344 12.480469 1.058594 8.289062 2.960938 5.007812 C 6.601562 9.492188 11.972656 12.214844 17.738281 12.503906 C 17.160156 10.011719 17.949219 7.402344 19.8125 5.648438 C 22.699219 2.929688 27.242188 3.070312 29.957031 5.960938 C 31.5625 5.644531 33.101562 5.054688 34.507812 4.21875 C 33.972656 5.878906 32.851562 7.289062 31.355469 8.1875 C 32.777344 8.019531 34.167969 7.636719 35.472656 7.054688 C 34.511719 8.5 33.296875 9.757812 31.894531 10.773438 Z M 31.894531 10.773438 " fill-opacity="1" fill-rule="nonzero"/></g></svg>